<mxfile host="app.diagrams.net" agent="Mozilla/5.0 (Windows NT 10.0; Win64; x64) AppleWebKit/537.36 (KHTML, like Gecko) Chrome/128.0.0.0 Safari/537.36" version="24.7.6">
  <diagram name="P치gina-1" id="-9gPHK4pk9C6uMI3nqBh">
    <mxGraphModel grid="1" page="1" gridSize="12" guides="1" tooltips="1" connect="1" arrows="1" fold="1" pageScale="1" pageWidth="827" pageHeight="1169" math="0" shadow="0">
      <root>
        <mxCell id="0" />
        <mxCell id="1" parent="0" />
        <mxCell id="EJDuyRKXHmOHzXWIgw70-3" value="" style="edgeStyle=orthogonalEdgeStyle;rounded=0;orthogonalLoop=1;jettySize=auto;html=1;strokeColor=#0B4D6A;fontSize=15;" edge="1" parent="1" source="EJDuyRKXHmOHzXWIgw70-1" target="EJDuyRKXHmOHzXWIgw70-2">
          <mxGeometry relative="1" as="geometry" />
        </mxCell>
        <mxCell id="EJDuyRKXHmOHzXWIgw70-1" value="&lt;font style=&quot;font-size: 25px;&quot;&gt;Inicio&lt;/font&gt;" style="rounded=1;whiteSpace=wrap;html=1;labelBackgroundColor=none;fillColor=#09555B;strokeColor=#BAC8D3;fontColor=#EEEEEE;fontSize=15;" vertex="1" parent="1">
          <mxGeometry x="804" y="132" width="144" height="84" as="geometry" />
        </mxCell>
        <mxCell id="EJDuyRKXHmOHzXWIgw70-5" value="" style="edgeStyle=orthogonalEdgeStyle;rounded=0;orthogonalLoop=1;jettySize=auto;html=1;strokeColor=#0B4D6A;fontSize=15;" edge="1" parent="1" source="EJDuyRKXHmOHzXWIgw70-2" target="EJDuyRKXHmOHzXWIgw70-4">
          <mxGeometry relative="1" as="geometry" />
        </mxCell>
        <mxCell id="EJDuyRKXHmOHzXWIgw70-13" value="" style="edgeStyle=orthogonalEdgeStyle;rounded=0;orthogonalLoop=1;jettySize=auto;html=1;strokeColor=#0B4D6A;fontSize=15;" edge="1" parent="1" source="EJDuyRKXHmOHzXWIgw70-2" target="EJDuyRKXHmOHzXWIgw70-12">
          <mxGeometry relative="1" as="geometry" />
        </mxCell>
        <mxCell id="EJDuyRKXHmOHzXWIgw70-2" value="&lt;font style=&quot;font-size: 22px;&quot;&gt;Planificaci칩n&lt;/font&gt;" style="rounded=1;whiteSpace=wrap;html=1;labelBackgroundColor=none;fillColor=#FF9933;strokeColor=#BAC8D3;fontColor=#EEEEEE;fontSize=22;" vertex="1" parent="1">
          <mxGeometry x="192" y="348" width="120" height="60" as="geometry" />
        </mxCell>
        <mxCell id="EJDuyRKXHmOHzXWIgw70-7" value="" style="edgeStyle=orthogonalEdgeStyle;rounded=0;orthogonalLoop=1;jettySize=auto;html=1;strokeColor=#0B4D6A;fontSize=15;" edge="1" parent="1" source="EJDuyRKXHmOHzXWIgw70-4" target="EJDuyRKXHmOHzXWIgw70-6">
          <mxGeometry relative="1" as="geometry" />
        </mxCell>
        <mxCell id="EJDuyRKXHmOHzXWIgw70-4" value="&lt;font style=&quot;font-size: 15px;&quot;&gt;Objetivo:&lt;/font&gt;" style="rounded=1;whiteSpace=wrap;html=1;labelBackgroundColor=none;fillColor=#FF9933;strokeColor=#BAC8D3;fontColor=#EEEEEE;fontSize=15;" vertex="1" parent="1">
          <mxGeometry x="414" y="432" width="120" height="60" as="geometry" />
        </mxCell>
        <mxCell id="EJDuyRKXHmOHzXWIgw70-9" value="" style="edgeStyle=orthogonalEdgeStyle;rounded=0;orthogonalLoop=1;jettySize=auto;html=1;strokeColor=#0B4D6A;fontSize=15;" edge="1" parent="1" source="EJDuyRKXHmOHzXWIgw70-6" target="EJDuyRKXHmOHzXWIgw70-8">
          <mxGeometry relative="1" as="geometry" />
        </mxCell>
        <mxCell id="EJDuyRKXHmOHzXWIgw70-6" value="&lt;font style=&quot;font-size: 15px;&quot;&gt;Lograr el funcionamiento de un cajero&lt;/font&gt;" style="rounded=1;whiteSpace=wrap;html=1;labelBackgroundColor=none;fillColor=#FF9933;strokeColor=#BAC8D3;fontColor=#EEEEEE;fontSize=15;" vertex="1" parent="1">
          <mxGeometry x="588" y="420" width="154" height="84" as="geometry" />
        </mxCell>
        <mxCell id="EJDuyRKXHmOHzXWIgw70-11" value="" style="edgeStyle=orthogonalEdgeStyle;rounded=0;orthogonalLoop=1;jettySize=auto;html=1;strokeColor=#0B4D6A;fontSize=15;" edge="1" parent="1" source="EJDuyRKXHmOHzXWIgw70-8" target="EJDuyRKXHmOHzXWIgw70-10">
          <mxGeometry relative="1" as="geometry" />
        </mxCell>
        <mxCell id="EJDuyRKXHmOHzXWIgw70-8" value="Procesos para el usuario" style="whiteSpace=wrap;html=1;fillColor=#FF9933;strokeColor=#BAC8D3;fontColor=#EEEEEE;rounded=1;labelBackgroundColor=none;fontSize=15;" vertex="1" parent="1">
          <mxGeometry x="605" y="552" width="120" height="60" as="geometry" />
        </mxCell>
        <mxCell id="EJDuyRKXHmOHzXWIgw70-10" value="Requerimientos" style="whiteSpace=wrap;html=1;fillColor=#FF9933;strokeColor=#BAC8D3;fontColor=#EEEEEE;rounded=1;labelBackgroundColor=none;fontSize=15;" vertex="1" parent="1">
          <mxGeometry x="605" y="660" width="120" height="60" as="geometry" />
        </mxCell>
        <mxCell id="EJDuyRKXHmOHzXWIgw70-16" value="" style="edgeStyle=orthogonalEdgeStyle;rounded=0;orthogonalLoop=1;jettySize=auto;html=1;strokeColor=#0B4D6A;fontSize=15;" edge="1" parent="1" source="EJDuyRKXHmOHzXWIgw70-12" target="EJDuyRKXHmOHzXWIgw70-15">
          <mxGeometry relative="1" as="geometry" />
        </mxCell>
        <mxCell id="EJDuyRKXHmOHzXWIgw70-18" value="" style="edgeStyle=orthogonalEdgeStyle;rounded=0;orthogonalLoop=1;jettySize=auto;html=1;strokeColor=#0B4D6A;fontSize=15;" edge="1" parent="1" source="EJDuyRKXHmOHzXWIgw70-12" target="EJDuyRKXHmOHzXWIgw70-17">
          <mxGeometry relative="1" as="geometry" />
        </mxCell>
        <mxCell id="EJDuyRKXHmOHzXWIgw70-29" style="edgeStyle=orthogonalEdgeStyle;rounded=0;orthogonalLoop=1;jettySize=auto;html=1;entryX=0.5;entryY=0;entryDx=0;entryDy=0;fontSize=15;" edge="1" parent="1" source="EJDuyRKXHmOHzXWIgw70-12" target="EJDuyRKXHmOHzXWIgw70-30">
          <mxGeometry relative="1" as="geometry">
            <mxPoint x="540" y="852" as="targetPoint" />
          </mxGeometry>
        </mxCell>
        <mxCell id="EJDuyRKXHmOHzXWIgw70-12" value="&lt;font style=&quot;font-size: 21px;&quot;&gt;An치lisis&lt;/font&gt;" style="rounded=1;whiteSpace=wrap;html=1;labelBackgroundColor=none;fillColor=#9AC7BF;strokeColor=#BAC8D3;fontColor=#003300;fontSize=21;" vertex="1" parent="1">
          <mxGeometry x="192" y="488" width="120" height="60" as="geometry" />
        </mxCell>
        <mxCell id="EJDuyRKXHmOHzXWIgw70-15" value="Definir el Saldo" style="rounded=1;whiteSpace=wrap;html=1;labelBackgroundColor=none;fillColor=#9AC7BF;strokeColor=#BAC8D3;fontColor=#003300;fontSize=15;" vertex="1" parent="1">
          <mxGeometry x="-12" y="636" width="120" height="60" as="geometry" />
        </mxCell>
        <mxCell id="EJDuyRKXHmOHzXWIgw70-20" value="" style="edgeStyle=orthogonalEdgeStyle;rounded=0;orthogonalLoop=1;jettySize=auto;html=1;strokeColor=#0B4D6A;fontSize=15;" edge="1" parent="1" source="EJDuyRKXHmOHzXWIgw70-17" target="EJDuyRKXHmOHzXWIgw70-19">
          <mxGeometry relative="1" as="geometry" />
        </mxCell>
        <mxCell id="EJDuyRKXHmOHzXWIgw70-22" value="" style="edgeStyle=orthogonalEdgeStyle;rounded=0;orthogonalLoop=1;jettySize=auto;html=1;strokeColor=#0B4D6A;fontSize=15;" edge="1" parent="1" source="EJDuyRKXHmOHzXWIgw70-17" target="EJDuyRKXHmOHzXWIgw70-21">
          <mxGeometry relative="1" as="geometry" />
        </mxCell>
        <mxCell id="EJDuyRKXHmOHzXWIgw70-17" value="Definir opciones para el usuario" style="rounded=1;whiteSpace=wrap;html=1;labelBackgroundColor=none;fillColor=#9AC7BF;strokeColor=#BAC8D3;fontColor=#003300;fontSize=15;" vertex="1" parent="1">
          <mxGeometry x="192" y="628" width="120" height="60" as="geometry" />
        </mxCell>
        <mxCell id="EJDuyRKXHmOHzXWIgw70-19" value="Representar las opciones de tal modo que el usuario pueda acceder a ellas" style="rounded=1;whiteSpace=wrap;html=1;labelBackgroundColor=none;fillColor=#9AC7BF;strokeColor=#BAC8D3;fontColor=#003300;fontSize=15;" vertex="1" parent="1">
          <mxGeometry x="192" y="768" width="120" height="108" as="geometry" />
        </mxCell>
        <mxCell id="EJDuyRKXHmOHzXWIgw70-24" value="" style="edgeStyle=orthogonalEdgeStyle;rounded=0;orthogonalLoop=1;jettySize=auto;html=1;strokeColor=#0B4D6A;fontSize=15;" edge="1" parent="1" source="EJDuyRKXHmOHzXWIgw70-21" target="EJDuyRKXHmOHzXWIgw70-23">
          <mxGeometry relative="1" as="geometry" />
        </mxCell>
        <mxCell id="EJDuyRKXHmOHzXWIgw70-21" value="Detallar el paso a paso de cada proceso" style="rounded=1;whiteSpace=wrap;html=1;labelBackgroundColor=none;fillColor=#9AC7BF;strokeColor=#BAC8D3;fontColor=#003300;fontSize=15;" vertex="1" parent="1">
          <mxGeometry x="392" y="628" width="120" height="60" as="geometry" />
        </mxCell>
        <mxCell id="EJDuyRKXHmOHzXWIgw70-23" value="Establecer los requerimientos" style="rounded=1;whiteSpace=wrap;html=1;labelBackgroundColor=none;fillColor=#9AC7BF;strokeColor=#BAC8D3;fontColor=#003300;fontSize=15;" vertex="1" parent="1">
          <mxGeometry x="392" y="768" width="120" height="60" as="geometry" />
        </mxCell>
        <mxCell id="EJDuyRKXHmOHzXWIgw70-34" value="" style="edgeStyle=orthogonalEdgeStyle;rounded=0;orthogonalLoop=1;jettySize=auto;html=1;fontSize=15;" edge="1" parent="1" source="EJDuyRKXHmOHzXWIgw70-30" target="EJDuyRKXHmOHzXWIgw70-33">
          <mxGeometry relative="1" as="geometry" />
        </mxCell>
        <mxCell id="EJDuyRKXHmOHzXWIgw70-42" value="" style="edgeStyle=orthogonalEdgeStyle;rounded=0;orthogonalLoop=1;jettySize=auto;html=1;fontSize=15;" edge="1" parent="1" source="EJDuyRKXHmOHzXWIgw70-30" target="EJDuyRKXHmOHzXWIgw70-41">
          <mxGeometry relative="1" as="geometry" />
        </mxCell>
        <mxCell id="EJDuyRKXHmOHzXWIgw70-30" value="&lt;font style=&quot;font-size: 22px;&quot;&gt;Dise침o&lt;/font&gt;" style="rounded=1;whiteSpace=wrap;html=1;labelBackgroundColor=none;fillColor=#FF3399;strokeColor=#BAC8D3;fontColor=#EEEEEE;fontSize=22;" vertex="1" parent="1">
          <mxGeometry x="512" y="912" width="120" height="60" as="geometry" />
        </mxCell>
        <mxCell id="EJDuyRKXHmOHzXWIgw70-36" value="" style="edgeStyle=orthogonalEdgeStyle;rounded=0;orthogonalLoop=1;jettySize=auto;html=1;fontSize=15;" edge="1" parent="1" source="EJDuyRKXHmOHzXWIgw70-33" target="EJDuyRKXHmOHzXWIgw70-35">
          <mxGeometry relative="1" as="geometry" />
        </mxCell>
        <mxCell id="EJDuyRKXHmOHzXWIgw70-33" value="Men칰 intuitivo para el usuario" style="rounded=1;whiteSpace=wrap;html=1;labelBackgroundColor=none;fillColor=#FF3399;strokeColor=#BAC8D3;fontColor=#EEEEEE;fontSize=15;" vertex="1" parent="1">
          <mxGeometry x="312" y="1008" width="120" height="60" as="geometry" />
        </mxCell>
        <mxCell id="EJDuyRKXHmOHzXWIgw70-38" value="" style="edgeStyle=orthogonalEdgeStyle;rounded=0;orthogonalLoop=1;jettySize=auto;html=1;fontSize=15;" edge="1" parent="1" source="EJDuyRKXHmOHzXWIgw70-35" target="EJDuyRKXHmOHzXWIgw70-37">
          <mxGeometry relative="1" as="geometry" />
        </mxCell>
        <mxCell id="EJDuyRKXHmOHzXWIgw70-35" value="Utilzando n칰meros para representar cada proceso" style="rounded=1;whiteSpace=wrap;html=1;labelBackgroundColor=none;fillColor=#FF3399;strokeColor=#BAC8D3;fontColor=#EEEEEE;fontSize=15;" vertex="1" parent="1">
          <mxGeometry x="312" y="1148" width="120" height="76" as="geometry" />
        </mxCell>
        <mxCell id="EJDuyRKXHmOHzXWIgw70-40" value="" style="edgeStyle=orthogonalEdgeStyle;rounded=0;orthogonalLoop=1;jettySize=auto;html=1;fontSize=15;" edge="1" parent="1" source="EJDuyRKXHmOHzXWIgw70-37" target="EJDuyRKXHmOHzXWIgw70-39">
          <mxGeometry relative="1" as="geometry" />
        </mxCell>
        <mxCell id="EJDuyRKXHmOHzXWIgw70-37" value="Dependiendo de la opci칩n, se usara mensajes para indicar al usuario los pasos a seguir" style="rounded=1;whiteSpace=wrap;html=1;labelBackgroundColor=none;fillColor=#FF3399;strokeColor=#BAC8D3;fontColor=#EEEEEE;fontSize=15;" vertex="1" parent="1">
          <mxGeometry x="512" y="1136" width="136" height="100" as="geometry" />
        </mxCell>
        <mxCell id="EJDuyRKXHmOHzXWIgw70-39" value="Luego de finalizar el proceso, se reiniciara el programa" style="rounded=1;whiteSpace=wrap;html=1;labelBackgroundColor=none;fillColor=#FF3399;strokeColor=#BAC8D3;fontColor=#EEEEEE;fontSize=15;" vertex="1" parent="1">
          <mxGeometry x="512" y="1296" width="136" height="76" as="geometry" />
        </mxCell>
        <mxCell id="EJDuyRKXHmOHzXWIgw70-44" value="" style="edgeStyle=orthogonalEdgeStyle;rounded=0;orthogonalLoop=1;jettySize=auto;html=1;fontSize=15;" edge="1" parent="1" source="EJDuyRKXHmOHzXWIgw70-41" target="EJDuyRKXHmOHzXWIgw70-43">
          <mxGeometry relative="1" as="geometry" />
        </mxCell>
        <mxCell id="EJDuyRKXHmOHzXWIgw70-50" value="" style="edgeStyle=orthogonalEdgeStyle;rounded=0;orthogonalLoop=1;jettySize=auto;html=1;fontSize=15;" edge="1" parent="1" source="EJDuyRKXHmOHzXWIgw70-41" target="EJDuyRKXHmOHzXWIgw70-49">
          <mxGeometry relative="1" as="geometry" />
        </mxCell>
        <mxCell id="EJDuyRKXHmOHzXWIgw70-60" value="" style="edgeStyle=orthogonalEdgeStyle;rounded=0;orthogonalLoop=1;jettySize=auto;html=1;entryX=0.5;entryY=1;entryDx=0;entryDy=0;fontSize=15;" edge="1" parent="1" source="EJDuyRKXHmOHzXWIgw70-41" target="EJDuyRKXHmOHzXWIgw70-59">
          <mxGeometry relative="1" as="geometry">
            <mxPoint x="1020" y="792" as="targetPoint" />
            <Array as="points">
              <mxPoint x="876" y="816" />
              <mxPoint x="944" y="816" />
            </Array>
          </mxGeometry>
        </mxCell>
        <mxCell id="EJDuyRKXHmOHzXWIgw70-74" style="edgeStyle=orthogonalEdgeStyle;rounded=0;orthogonalLoop=1;jettySize=auto;html=1;exitX=0;exitY=1;exitDx=0;exitDy=0;entryX=0.5;entryY=0;entryDx=0;entryDy=0;fontSize=15;" edge="1" parent="1" source="EJDuyRKXHmOHzXWIgw70-41" target="EJDuyRKXHmOHzXWIgw70-75">
          <mxGeometry relative="1" as="geometry">
            <mxPoint x="756" y="1524" as="targetPoint" />
            <Array as="points">
              <mxPoint x="756" y="972" />
            </Array>
          </mxGeometry>
        </mxCell>
        <mxCell id="EJDuyRKXHmOHzXWIgw70-41" value="&lt;font style=&quot;font-size: 22px;&quot;&gt;Implementaci칩n&lt;/font&gt;" style="rounded=1;whiteSpace=wrap;html=1;labelBackgroundColor=none;fillColor=#004C99;strokeColor=#BAC8D3;fontColor=#EEEEEE;fontSize=22;" vertex="1" parent="1">
          <mxGeometry x="792" y="912" width="168" height="60" as="geometry" />
        </mxCell>
        <mxCell id="EJDuyRKXHmOHzXWIgw70-46" value="" style="edgeStyle=orthogonalEdgeStyle;rounded=0;orthogonalLoop=1;jettySize=auto;html=1;fontSize=15;" edge="1" parent="1" source="EJDuyRKXHmOHzXWIgw70-43" target="EJDuyRKXHmOHzXWIgw70-45">
          <mxGeometry relative="1" as="geometry" />
        </mxCell>
        <mxCell id="EJDuyRKXHmOHzXWIgw70-48" value="" style="edgeStyle=orthogonalEdgeStyle;rounded=0;orthogonalLoop=1;jettySize=auto;html=1;fontSize=15;" edge="1" parent="1" source="EJDuyRKXHmOHzXWIgw70-43" target="EJDuyRKXHmOHzXWIgw70-47">
          <mxGeometry relative="1" as="geometry">
            <Array as="points">
              <mxPoint x="984" y="1080" />
              <mxPoint x="984" y="1124" />
            </Array>
          </mxGeometry>
        </mxCell>
        <mxCell id="EJDuyRKXHmOHzXWIgw70-43" value="Uso de condicionales dobles&amp;nbsp;" style="whiteSpace=wrap;html=1;fillColor=#004C99;strokeColor=#BAC8D3;fontColor=#EEEEEE;rounded=1;labelBackgroundColor=none;fontSize=15;" vertex="1" parent="1">
          <mxGeometry x="816" y="1052" width="120" height="60" as="geometry" />
        </mxCell>
        <mxCell id="EJDuyRKXHmOHzXWIgw70-45" value="usando valores enteros para representar las opciones de transacci칩n" style="whiteSpace=wrap;html=1;fillColor=#004C99;strokeColor=#BAC8D3;fontColor=#EEEEEE;rounded=1;labelBackgroundColor=none;fontSize=15;" vertex="1" parent="1">
          <mxGeometry x="816" y="1192" width="120" height="92" as="geometry" />
        </mxCell>
        <mxCell id="EJDuyRKXHmOHzXWIgw70-47" value="Validar requerimientos como el saldo, el valor de una transacci칩n" style="whiteSpace=wrap;html=1;fillColor=#004C99;strokeColor=#BAC8D3;fontColor=#EEEEEE;rounded=1;labelBackgroundColor=none;fontSize=15;" vertex="1" parent="1">
          <mxGeometry x="1032" y="1074" width="120" height="100" as="geometry" />
        </mxCell>
        <mxCell id="EJDuyRKXHmOHzXWIgw70-52" value="" style="edgeStyle=orthogonalEdgeStyle;rounded=0;orthogonalLoop=1;jettySize=auto;html=1;fontSize=15;" edge="1" parent="1" source="EJDuyRKXHmOHzXWIgw70-49" target="EJDuyRKXHmOHzXWIgw70-51">
          <mxGeometry relative="1" as="geometry" />
        </mxCell>
        <mxCell id="EJDuyRKXHmOHzXWIgw70-54" value="" style="edgeStyle=orthogonalEdgeStyle;rounded=0;orthogonalLoop=1;jettySize=auto;html=1;entryX=0;entryY=0.5;entryDx=0;entryDy=0;fontSize=15;" edge="1" parent="1" source="EJDuyRKXHmOHzXWIgw70-49" target="EJDuyRKXHmOHzXWIgw70-53">
          <mxGeometry relative="1" as="geometry">
            <Array as="points">
              <mxPoint x="1076" y="858" />
            </Array>
          </mxGeometry>
        </mxCell>
        <mxCell id="EJDuyRKXHmOHzXWIgw70-58" style="edgeStyle=orthogonalEdgeStyle;rounded=0;orthogonalLoop=1;jettySize=auto;html=1;entryX=0;entryY=0.5;entryDx=0;entryDy=0;fontSize=15;" edge="1" parent="1" source="EJDuyRKXHmOHzXWIgw70-49" target="EJDuyRKXHmOHzXWIgw70-57">
          <mxGeometry relative="1" as="geometry">
            <Array as="points">
              <mxPoint x="1076" y="1038" />
            </Array>
          </mxGeometry>
        </mxCell>
        <mxCell id="EJDuyRKXHmOHzXWIgw70-49" value="Uso de variables tipo entero y real" style="whiteSpace=wrap;html=1;fillColor=#004C99;strokeColor=#BAC8D3;fontColor=#EEEEEE;rounded=1;labelBackgroundColor=none;fontSize=15;" vertex="1" parent="1">
          <mxGeometry x="1016" y="912" width="120" height="60" as="geometry" />
        </mxCell>
        <mxCell id="EJDuyRKXHmOHzXWIgw70-51" value="para representar opciones para el usuario" style="whiteSpace=wrap;html=1;fillColor=#004C99;strokeColor=#BAC8D3;fontColor=#EEEEEE;rounded=1;labelBackgroundColor=none;fontSize=15;" vertex="1" parent="1">
          <mxGeometry x="1216" y="912" width="120" height="60" as="geometry" />
        </mxCell>
        <mxCell id="EJDuyRKXHmOHzXWIgw70-53" value="Para almacenar valores que representen dinero" style="whiteSpace=wrap;html=1;fillColor=#004C99;strokeColor=#BAC8D3;fontColor=#EEEEEE;rounded=1;labelBackgroundColor=none;fontSize=15;" vertex="1" parent="1">
          <mxGeometry x="1216" y="828" width="128" height="60" as="geometry" />
        </mxCell>
        <mxCell id="EJDuyRKXHmOHzXWIgw70-57" value="para realizar operaciones en las transacciones como dep칩sitos" style="whiteSpace=wrap;html=1;fillColor=#004C99;strokeColor=#BAC8D3;fontColor=#EEEEEE;rounded=1;labelBackgroundColor=none;fontSize=15;" vertex="1" parent="1">
          <mxGeometry x="1216" y="1002" width="128" height="72" as="geometry" />
        </mxCell>
        <mxCell id="EJDuyRKXHmOHzXWIgw70-63" style="edgeStyle=orthogonalEdgeStyle;rounded=0;orthogonalLoop=1;jettySize=auto;html=1;entryX=0;entryY=0.5;entryDx=0;entryDy=0;fontSize=15;" edge="1" parent="1" source="EJDuyRKXHmOHzXWIgw70-59" target="EJDuyRKXHmOHzXWIgw70-61">
          <mxGeometry relative="1" as="geometry">
            <Array as="points">
              <mxPoint x="944" y="554" />
            </Array>
          </mxGeometry>
        </mxCell>
        <mxCell id="EJDuyRKXHmOHzXWIgw70-65" value="" style="edgeStyle=orthogonalEdgeStyle;rounded=0;orthogonalLoop=1;jettySize=auto;html=1;fontSize=15;" edge="1" parent="1" source="EJDuyRKXHmOHzXWIgw70-59" target="EJDuyRKXHmOHzXWIgw70-64">
          <mxGeometry relative="1" as="geometry" />
        </mxCell>
        <mxCell id="EJDuyRKXHmOHzXWIgw70-59" value="Uso de dispositivos de entrada y de salida para interactuar con el usuario" style="whiteSpace=wrap;html=1;fillColor=#004C99;strokeColor=#BAC8D3;fontColor=#EEEEEE;rounded=1;labelBackgroundColor=none;fontSize=15;" vertex="1" parent="1">
          <mxGeometry x="872" y="654" width="144" height="96" as="geometry" />
        </mxCell>
        <mxCell id="EJDuyRKXHmOHzXWIgw70-67" value="" style="edgeStyle=orthogonalEdgeStyle;rounded=0;orthogonalLoop=1;jettySize=auto;html=1;fontSize=15;" edge="1" parent="1" source="EJDuyRKXHmOHzXWIgw70-61" target="EJDuyRKXHmOHzXWIgw70-66">
          <mxGeometry relative="1" as="geometry" />
        </mxCell>
        <mxCell id="EJDuyRKXHmOHzXWIgw70-68" style="edgeStyle=orthogonalEdgeStyle;rounded=0;orthogonalLoop=1;jettySize=auto;html=1;entryX=0;entryY=0.5;entryDx=0;entryDy=0;fontSize=15;" edge="1" parent="1" source="EJDuyRKXHmOHzXWIgw70-61" target="EJDuyRKXHmOHzXWIgw70-69">
          <mxGeometry relative="1" as="geometry">
            <mxPoint x="1188" y="468" as="targetPoint" />
            <Array as="points">
              <mxPoint x="1152" y="438" />
            </Array>
          </mxGeometry>
        </mxCell>
        <mxCell id="EJDuyRKXHmOHzXWIgw70-61" value="Salida" style="whiteSpace=wrap;html=1;fillColor=#004C99;strokeColor=#BAC8D3;fontColor=#EEEEEE;rounded=1;labelBackgroundColor=none;fontSize=15;" vertex="1" parent="1">
          <mxGeometry x="1092" y="524" width="120" height="60" as="geometry" />
        </mxCell>
        <mxCell id="EJDuyRKXHmOHzXWIgw70-71" value="" style="edgeStyle=orthogonalEdgeStyle;rounded=0;orthogonalLoop=1;jettySize=auto;html=1;fontSize=15;" edge="1" parent="1" source="EJDuyRKXHmOHzXWIgw70-64" target="EJDuyRKXHmOHzXWIgw70-70">
          <mxGeometry relative="1" as="geometry" />
        </mxCell>
        <mxCell id="EJDuyRKXHmOHzXWIgw70-64" value="Entrada" style="whiteSpace=wrap;html=1;fillColor=#004C99;strokeColor=#BAC8D3;fontColor=#EEEEEE;rounded=1;labelBackgroundColor=none;fontSize=15;" vertex="1" parent="1">
          <mxGeometry x="1092" y="672" width="120" height="60" as="geometry" />
        </mxCell>
        <mxCell id="EJDuyRKXHmOHzXWIgw70-66" value="Pantalla o monitor para mostrar toda la informaci칩n" style="whiteSpace=wrap;html=1;fillColor=#004C99;strokeColor=#BAC8D3;fontColor=#EEEEEE;rounded=1;labelBackgroundColor=none;fontSize=15;" vertex="1" parent="1">
          <mxGeometry x="1292" y="514" width="120" height="80" as="geometry" />
        </mxCell>
        <mxCell id="EJDuyRKXHmOHzXWIgw70-69" value="Hardaware espec칤fico para entregar dinero" style="whiteSpace=wrap;html=1;fillColor=#004C99;strokeColor=#BAC8D3;fontColor=#EEEEEE;rounded=1;labelBackgroundColor=none;fontSize=15;" vertex="1" parent="1">
          <mxGeometry x="1292" y="408" width="120" height="60" as="geometry" />
        </mxCell>
        <mxCell id="EJDuyRKXHmOHzXWIgw70-73" value="" style="edgeStyle=orthogonalEdgeStyle;rounded=0;orthogonalLoop=1;jettySize=auto;html=1;fontSize=15;" edge="1" parent="1" source="EJDuyRKXHmOHzXWIgw70-70" target="EJDuyRKXHmOHzXWIgw70-72">
          <mxGeometry relative="1" as="geometry" />
        </mxCell>
        <mxCell id="EJDuyRKXHmOHzXWIgw70-70" value="Teclado, pantalla t치ctil o ambas" style="whiteSpace=wrap;html=1;fillColor=#004C99;strokeColor=#BAC8D3;fontColor=#EEEEEE;rounded=1;labelBackgroundColor=none;fontSize=15;" vertex="1" parent="1">
          <mxGeometry x="1292" y="672" width="120" height="60" as="geometry" />
        </mxCell>
        <mxCell id="EJDuyRKXHmOHzXWIgw70-72" value="Para que el usuario inserte informaci칩n relevante para la transacci칩n" style="whiteSpace=wrap;html=1;fillColor=#004C99;strokeColor=#BAC8D3;fontColor=#EEEEEE;rounded=1;labelBackgroundColor=none;fontSize=15;" vertex="1" parent="1">
          <mxGeometry x="1492" y="654" width="120" height="96" as="geometry" />
        </mxCell>
        <mxCell id="EJDuyRKXHmOHzXWIgw70-77" value="" style="edgeStyle=orthogonalEdgeStyle;rounded=0;orthogonalLoop=1;jettySize=auto;html=1;fontSize=15;" edge="1" parent="1" source="EJDuyRKXHmOHzXWIgw70-75" target="EJDuyRKXHmOHzXWIgw70-76">
          <mxGeometry relative="1" as="geometry" />
        </mxCell>
        <mxCell id="EJDuyRKXHmOHzXWIgw70-85" value="" style="edgeStyle=orthogonalEdgeStyle;rounded=0;orthogonalLoop=1;jettySize=auto;html=1;fontSize=15;" edge="1" parent="1" source="EJDuyRKXHmOHzXWIgw70-75" target="EJDuyRKXHmOHzXWIgw70-84">
          <mxGeometry relative="1" as="geometry" />
        </mxCell>
        <mxCell id="EJDuyRKXHmOHzXWIgw70-75" value="&lt;font style=&quot;font-size: 22px;&quot;&gt;Pruebas&lt;/font&gt;" style="rounded=1;whiteSpace=wrap;html=1;labelBackgroundColor=none;fillColor=#666600;strokeColor=#BAC8D3;fontColor=#EEEEEE;fontSize=22;" vertex="1" parent="1">
          <mxGeometry x="696" y="1536" width="120" height="60" as="geometry" />
        </mxCell>
        <mxCell id="EJDuyRKXHmOHzXWIgw70-79" value="" style="edgeStyle=orthogonalEdgeStyle;rounded=0;orthogonalLoop=1;jettySize=auto;html=1;fontSize=15;" edge="1" parent="1" source="EJDuyRKXHmOHzXWIgw70-76" target="EJDuyRKXHmOHzXWIgw70-78">
          <mxGeometry relative="1" as="geometry" />
        </mxCell>
        <mxCell id="EJDuyRKXHmOHzXWIgw70-81" value="" style="edgeStyle=orthogonalEdgeStyle;rounded=0;orthogonalLoop=1;jettySize=auto;html=1;fontSize=15;" edge="1" parent="1" source="EJDuyRKXHmOHzXWIgw70-76" target="EJDuyRKXHmOHzXWIgw70-80">
          <mxGeometry relative="1" as="geometry" />
        </mxCell>
        <mxCell id="EJDuyRKXHmOHzXWIgw70-83" value="" style="edgeStyle=orthogonalEdgeStyle;rounded=0;orthogonalLoop=1;jettySize=auto;html=1;fontSize=15;" edge="1" parent="1" source="EJDuyRKXHmOHzXWIgw70-76" target="EJDuyRKXHmOHzXWIgw70-82">
          <mxGeometry relative="1" as="geometry" />
        </mxCell>
        <mxCell id="EJDuyRKXHmOHzXWIgw70-76" value="Probar los diferentes procesos con diferentes datos" style="whiteSpace=wrap;html=1;fillColor=#666600;strokeColor=#BAC8D3;fontColor=#EEEEEE;rounded=1;labelBackgroundColor=none;fontSize=15;" vertex="1" parent="1">
          <mxGeometry x="896" y="1530" width="120" height="72" as="geometry" />
        </mxCell>
        <mxCell id="EJDuyRKXHmOHzXWIgw70-78" value="Como con n칰meros tanto positivos y negativos" style="whiteSpace=wrap;html=1;fillColor=#666600;strokeColor=#BAC8D3;fontColor=#EEEEEE;rounded=1;labelBackgroundColor=none;fontSize=15;" vertex="1" parent="1">
          <mxGeometry x="896" y="1676" width="120" height="88" as="geometry" />
        </mxCell>
        <mxCell id="EJDuyRKXHmOHzXWIgw70-80" value="Opciones no definidas" style="whiteSpace=wrap;html=1;fillColor=#666600;strokeColor=#BAC8D3;fontColor=#EEEEEE;rounded=1;labelBackgroundColor=none;fontSize=15;" vertex="1" parent="1">
          <mxGeometry x="1096" y="1536" width="120" height="60" as="geometry" />
        </mxCell>
        <mxCell id="EJDuyRKXHmOHzXWIgw70-82" value="Intentar retirar mas dinero que el saldo inicial" style="whiteSpace=wrap;html=1;fillColor=#666600;strokeColor=#BAC8D3;fontColor=#EEEEEE;rounded=1;labelBackgroundColor=none;fontSize=15;" vertex="1" parent="1">
          <mxGeometry x="896" y="1396" width="120" height="60" as="geometry" />
        </mxCell>
        <mxCell id="EJDuyRKXHmOHzXWIgw70-87" value="" style="edgeStyle=orthogonalEdgeStyle;rounded=0;orthogonalLoop=1;jettySize=auto;html=1;fontSize=15;" edge="1" parent="1" source="EJDuyRKXHmOHzXWIgw70-84" target="EJDuyRKXHmOHzXWIgw70-86">
          <mxGeometry relative="1" as="geometry" />
        </mxCell>
        <mxCell id="EJDuyRKXHmOHzXWIgw70-84" value="&lt;font style=&quot;font-size: 22px;&quot;&gt;Mantenimiento&lt;/font&gt;" style="rounded=1;whiteSpace=wrap;html=1;labelBackgroundColor=none;fillColor=#006633;strokeColor=#BAC8D3;fontColor=#EEEEEE;fontSize=22;" vertex="1" parent="1">
          <mxGeometry x="482" y="1536" width="148" height="60" as="geometry" />
        </mxCell>
        <mxCell id="EJDuyRKXHmOHzXWIgw70-89" value="" style="edgeStyle=orthogonalEdgeStyle;rounded=0;orthogonalLoop=1;jettySize=auto;html=1;fontSize=15;" edge="1" parent="1" source="EJDuyRKXHmOHzXWIgw70-86" target="EJDuyRKXHmOHzXWIgw70-88">
          <mxGeometry relative="1" as="geometry" />
        </mxCell>
        <mxCell id="EJDuyRKXHmOHzXWIgw70-86" value="De la implementaci칩n y las pruebas&amp;nbsp;" style="whiteSpace=wrap;html=1;fillColor=#006633;strokeColor=#BAC8D3;fontColor=#EEEEEE;rounded=1;labelBackgroundColor=none;fontSize=15;" vertex="1" parent="1">
          <mxGeometry x="496" y="1676" width="120" height="60" as="geometry" />
        </mxCell>
        <mxCell id="EJDuyRKXHmOHzXWIgw70-91" value="" style="edgeStyle=orthogonalEdgeStyle;rounded=0;orthogonalLoop=1;jettySize=auto;html=1;fontSize=15;" edge="1" parent="1" source="EJDuyRKXHmOHzXWIgw70-88" target="EJDuyRKXHmOHzXWIgw70-90">
          <mxGeometry relative="1" as="geometry" />
        </mxCell>
        <mxCell id="EJDuyRKXHmOHzXWIgw70-88" value="solucionar y/o optimizar el algoritmo" style="whiteSpace=wrap;html=1;fillColor=#006633;strokeColor=#BAC8D3;fontColor=#EEEEEE;rounded=1;labelBackgroundColor=none;fontSize=15;" vertex="1" parent="1">
          <mxGeometry x="496" y="1816" width="120" height="60" as="geometry" />
        </mxCell>
        <mxCell id="EJDuyRKXHmOHzXWIgw70-92" style="edgeStyle=orthogonalEdgeStyle;rounded=0;orthogonalLoop=1;jettySize=auto;html=1;entryX=0.5;entryY=1;entryDx=0;entryDy=0;fontSize=15;" edge="1" parent="1" source="EJDuyRKXHmOHzXWIgw70-90" target="EJDuyRKXHmOHzXWIgw70-75">
          <mxGeometry relative="1" as="geometry" />
        </mxCell>
        <mxCell id="EJDuyRKXHmOHzXWIgw70-90" value="Volver a probarlo y repetir hasta que no hallan errores" style="whiteSpace=wrap;html=1;fillColor=#006633;strokeColor=#BAC8D3;fontColor=#EEEEEE;rounded=1;labelBackgroundColor=none;fontSize=15;" vertex="1" parent="1">
          <mxGeometry x="696" y="1806" width="120" height="80" as="geometry" />
        </mxCell>
      </root>
    </mxGraphModel>
  </diagram>
</mxfile>
